<svg xmlns="http://www.w3.org/2000/svg"
 viewBox="0 0 512.000000 512.000000" width="32px" height="32px">

<g transform="translate(0.000000,512.000000) scale(0.100000,-0.100000)"
fill="#000000" stroke="none">
<path d="M2443 4799 c-38 -39 -115 -110 -173 -156 -443 -357 -996 -578 -1674
-668 -35 -5 -57 -15 -78 -35 -27 -27 -28 -32 -28 -127 0 -207 49 -637 105
-920 68 -340 181 -724 294 -993 342 -812 867 -1361 1543 -1614 53 -20 111 -36
128 -36 68 0 338 116 510 220 535 322 942 852 1212 1579 189 512 337 1284 338
1764 0 95 -1 100 -28 127 -21 20 -43 30 -78 35 -607 81 -1104 263 -1527 559
-112 78 -264 205 -336 280 -49 51 -57 56 -97 56 -41 0 -48 -4 -111 -71z"/>
</g>
</svg>
